# AST/ASF file generated using VICON BodyLanguage
# -----------------------------------------------
:version 1.10
:name VICON
:units
  mass 1.0
  length 0.45
  angle deg
:documentation
   .ast/.asf automatically generated from VICON data using
   VICON BodyBuilder and BodyLanguage model FoxedUp or BRILLIANT.MOD
:root
   order TX TY TZ RX RY RZ
   axis XYZ
   position 0 0 0  
   orientation 0 0 0 
:bonedata
  begin
     id 1 
     name lhipjoint
     direction 0.690799 -0.707083 0.151096 
     length 2.54797 
     axis 0 0 0  XYZ
  end
  begin
     id 2 
     name lfemur
     direction 0.34202 -0.939693 0  
     length 7.21646  
     axis 0 0 20  XYZ
    dof rx ry rz
    limits (-160.0 20.0)
           (-70.0 70.0)
           (-60.0 70.0)
  end
  begin
     id 3 
     name ltibia
     direction 0.34202 -0.939693 0   
     length 8.16759   
     axis 0 0 20   XYZ
    dof rx
    limits (-10.0 170.0)
  end
  begin
     id 4 
     name lfoot
     direction 0.0487203 -0.133858 0.989802   
     length 1.93375   
     axis -90 7.62852e-016 20   XYZ
    dof rx rz
    limits (-45.0 90.0)
           (-70.0 20.0)
  end
  begin
     id 5 
     name ltoes
     direction 1.53453e-011 -4.21783e-011 1   
     length 0.979747   
     axis -90 7.62852e-016 20   XYZ
    dof rx
    limits (-90.0 20.0)
  end
  begin
     id 6 
     name rhipjoint
     direction -0.694693 -0.703425 0.150315   
     length 2.56122  
     axis 0 0 0  XYZ 
  end
  begin
     id 7 
     name rfemur
     direction -0.34202 -0.939693 0   
     length 7.36786   
     axis 0 0 -20   XYZ
    dof rx ry rz
    limits (-160.0 20.0)
           (-70.0 70.0)
           (-70.0 60.0)
  end
  begin
     id 8 
     name rtibia
     direction -0.34202 -0.939693 0   
     length 8.07288   
     axis 0 0 -20   XYZ
    dof rx
    limits (-10.0 170.0)
 end
 begin
     id 9 
     name rfoot
     direction -0.0428397 -0.117701 0.992125   
     length 1.88295  
     axis -90 -7.62852e-016 -20   XYZ
    dof rx rz
    limits (-45.0 90.0)
           (-20.0 70.0)
  end
  begin
     id 10 
     name rtoes
     direction -1.53456e-011 -4.2187e-011 1   
     length 0.955578   
     axis -90 -7.62852e-016 -20   XYZ
    dof rx
    limits (-90.0 20.0)
  end
  begin
     id 11 
     name lowerback
     direction 0.0288145 0.999398 -0.0193241   
     length 1.92149   
     axis 0 0 0   XYZ
    dof rx ry rz
    limits (-20.0 45.0)
           (-30.0 30.0)
           (-30.0 30.0)
  end
  begin
     id 12 
     name upperback
     direction 0.0233784 0.998099 0.0570278   
     length 1.90435   
     axis 0 0 0   XYZ
    dof rx ry rz
    limits (-20.0 45.0)
           (-30.0 30.0)
           (-30.0 30.0)
  end
  begin
     id 13 
     name thorax
     direction 0.0096694 0.997833 0.0650817   
     length 1.9111   
     axis 0 0 0   XYZ
    dof rx ry rz
    limits (-20.0 45.0)
           (-30.0 30.0)
           (-30.0 30.0)
  end
  begin
     id 14 
     name lowerneck
     direction 0.00516803 0.999916 0.0118722   
     length 1.74664   
     axis 0 0 0   XYZ
    dof rx ry rz
    limits (-20.0 45.0)
           (-30.0 30.0)
           (-30.0 30.0)
  end
  begin
     id 15 
     name upperneck
     direction -0.0510851 0.996117 -0.071696   
     length 1.68498   
     axis 0 0 0   XYZ
    dof rx ry rz
    limits (-20.0 45.0)
           (-30.0 30.0)
           (-30.0 30.0)
  end
  begin
     id 16
     name head
     direction -0.019188 0.999436 -0.0275702  
     length 1.83483  
     axis 0 0 0   XYZ
    dof rx ry rz
    limits (-20.0 45.0)
           (-30.0 30.0)
           (-30.0 30.0)
  end
  begin
     id 17 
     name lclavicle
     direction 0.967006 0.248456 -0.0562957  
     length 3.39395  
     axis 0 0 0   XYZ
    dof ry rz
    limits (-20.0 10.0)
           (0.0 20.0)
  end
  begin
     id 18 
     name lhumerus
     direction 1 -4.48962e-011 -5.62711e-019   
     length 5.24318   
     axis 180 -30 -90   XYZ
    dof rx ry rz
    limits (-60.0 90.0)
           (-90.0 90.0)
           (-90.0 90.0)
  end
  begin
     id 19
     name lradius
     direction 1 -4.48966e-011 7.90625e-027   
     length 2.98999   
     axis 180 -30 -90   XYZ
    dof rx
    limits (-10.0 170.0)
  end
  begin
     id 20
     name lwrist
     direction 1 -4.48959e-011 1.61068e-026   
     length 1.49499   
     axis -9.31229e-015 90 90   XYZ
    dof ry
    limits (-180.0 0.0)
 end
  begin
     id 21 
     name lhand
     direction 1 -4.49017e-011 3.22136e-026   
     length 0.726745   
     axis -2.0555e-014 90 90   XYZ
    dof rx rz
    limits (-90.0 90.0)
           (-45.0 45.0)
  end
  begin
     id 22 
     name lfingers
     direction 1 -4.4898e-011 6.44272e-026   
     length 0.58592   
     axis -4.11101e-014 90 90   XYZ
    dof rx
    limits (0.0 90.0)
  end
  begin
     id 23
     name lthumb
     direction 0.707107 -6.34922e-011 0.707107   
     length 0.841268   
     axis -90 45 2.85299e-015   XYZ
    dof rx rz
    limits (-45.0 45.0)
           (-45.0 45.0)
  end
  begin
     id 24 
     name rclavicle
     direction -0.972232 0.230238 0.0419005   
     length 3.40416  
     axis 0 0 0   XYZ 
    dof ry rz
    limits (-10.0 20.0)
           (-20.0 0.0)
  end
  begin
     id 25 
     name rhumerus
     direction -1 -4.48976e-011 2.48487e-027  
     length 5.37045   
     axis 180 30 90   XYZ
    dof rx ry rz
    limits (-90.0 60.0)
           (-90.0 90.0)
           (-90.0 90.0)
  end
  begin
     id 26 
     name rradius
     direction -1 -4.48942e-011 7.87951e-027   
     length 2.92792   
     axis 180 30 90   XYZ
    dof rx
    limits (-10.0 170.0)
  end
  begin
     id 27 
     name rwrist
     direction -1 -4.48969e-011 1.61068e-026   
     length 1.46396   
     axis -9.31229e-015 -90 -90   XYZ
    dof ry
    limits (-180.0 0.0)
  end
  begin
     id 28
     name rhand
     direction -1 -4.49043e-011 3.22136e-026   
     length 0.784497   
     axis -2.0555e-014 -90 -90   XYZ
    dof rx rz
    limits (-90.0 90.0)
           (-45.0 45.0)
  end
  begin
     id 29
     name rfingers
     direction -1 -4.48823e-011 6.44272e-026   
     length 0.632482   
     axis -4.11101e-014 -90 -90   XYZ
    dof rx
    limits (0.0 90.0)
  end
  begin
     id 30
     name rthumb
     direction -0.707107 -6.34923e-011 0.707107   
     length 0.908121   
     axis -90 -45 -2.85299e-015   XYZ
    dof rx rz
    limits (-45.0 45.0)
           (-45.0 45.0)
  end
:hierarchy
  begin
    root lhipjoint rhipjoint lowerback
    lhipjoint lfemur
    lfemur ltibia
    ltibia lfoot
    lfoot ltoes
    rhipjoint rfemur
    rfemur rtibia
    rtibia rfoot
    rfoot rtoes
    lowerback upperback
    upperback thorax
    thorax lowerneck lclavicle rclavicle
    lowerneck upperneck
    upperneck head
    lclavicle lhumerus
    lhumerus lradius
    lradius lwrist
    lwrist lhand lthumb
    lhand lfingers
    rclavicle rhumerus
    rhumerus rradius
    rradius rwrist
    rwrist rhand rthumb
    rhand rfingers
  end

#!OML:ASF E:\Style6\Style6.ASF
:FULLY-SPECIFIED
:DEGREES
487
root -0.484395 16.8851 0.0166065 4.10167 -1.77495 -4.02825
lowerback 7.18024 -1.25987 2.11381
upperback -1.02689 -1.58235 -1.79127
thorax -5.20961 -0.872609 -2.87021
lowerneck -7.64462 -0.377492 1.21081
upperneck 0.505236 -0.501507 -4.03606
head 1.44989 -0.336364 -1.49769
rclavicle -3.57812e-015 2.3059e-014
rhumerus 9.41111 -23.7462 -7.32939
rradius 93.9491
rwrist -11.7223
rhand 17.0727 1.19204
rfingers 7.12502
rthumb 41.7989 -23.465
lclavicle -3.57812e-015 2.3059e-014
lhumerus -20.0921 16.3212 76.6305
lradius 86.1607
lwrist -19.6282
lhand 5.05839 22.2805
lfingers 7.12502
lthumb 30.4257 49.7899
rfemur -29.5196 -9.88449 26.4813
rtibia 49.0171
rfoot -16.7764 3.42797
rtoes -7.35374
lfemur -28.4071 15.1195 -9.98435
ltibia 51.5824
lfoot -21.0706 -7.35689
ltoes -20.5064
488
root -0.489276 16.8893 0.0188635 4.11123 -1.73115 -3.90771
lowerback 7.19978 -1.25094 2.06609
upperback -1.00167 -1.57116 -1.73126
thorax -5.19023 -0.864107 -2.78172
lowerneck -7.87705 -0.386019 1.0399
upperneck 0.714644 -0.489897 -4.05605
head 1.55886 -0.336171 -1.47814
rclavicle 1.67973e-014 7.95139e-016
rhumerus 10.2392 -23.8158 -7.71734
rradius 93.5875
rwrist -11.3145
rhand 16.5512 1.20071
rfingers 7.12502
rthumb 41.3098 -23.6164
lclavicle 1.67973e-014 7.95139e-016
lhumerus -20.2129 16.2466 76.8464
lradius 86.1076
lwrist -19.6871
lhand 5.11584 22.3758
lfingers 7.12502
lthumb 30.4805 49.875
rfemur -29.5322 -9.86847 26.3605
rtibia 49.0214
rfoot -16.7583 3.45621
rtoes -6.7662
lfemur -28.3694 15.0466 -10.1102
ltibia 51.4765
lfoot -21.0474 -7.29492
ltoes -20.8509
489
root -0.493191 16.8927 0.019179 4.06565 -1.68782 -3.78969
lowerback 7.30255 -1.24222 2.04886
upperback -0.981297 -1.55804 -1.70298
thorax -5.22492 -0.856761 -2.74252
lowerneck -7.94278 -0.404745 0.95941
upperneck 0.747201 -0.505056 -4.09113
head 1.58065 -0.34596 -1.47686
rclavicle 6.06293e-015 2.78299e-014
rhumerus 11.0025 -23.8619 -8.10142
rradius 93.2558
rwrist -10.8943
rhand 16.0016 1.27575
rfingers 7.12502
rthumb 40.7936 -23.7059
lclavicle 6.06293e-015 2.78299e-014
lhumerus -20.4013 16.0665 76.9569
lradius 86.0972
lwrist -19.6434
lhand 5.20233 22.5795
lfingers 7.12502
lthumb 30.5629 50.0634
rfemur -29.4738 -9.89446 26.2384
rtibia 49.0173
rfoot -16.7724 3.35327
rtoes -7.11098
lfemur -28.282 14.9902 -10.2268
ltibia 51.3749
lfoot -21.0104 -7.19602
ltoes -21.1849
490
root -0.496262 16.8971 0.0199185 4.08032 -1.66045 -3.66813
lowerback 7.29513 -1.23558 2.03828
upperback -0.957268 -1.55105 -1.72128
thorax -5.19533 -0.852651 -2.75678
lowerneck -7.96535 -0.379485 1.1037
upperneck 0.647575 -0.485978 -4.16918
head 1.55361 -0.336853 -1.52588
rclavicle 2.39536e-014 -1.98785e-014
rhumerus 11.7732 -23.9047 -8.54022
rradius 92.9193
rwrist -10.4395
rhand 15.5069 1.2734
rfingers 7.12502
rthumb 40.3285 -23.8527
lclavicle 2.39536e-014 -1.98785e-014
lhumerus -20.5492 15.9473 76.9707
lradius 86.0941
lwrist -19.625
lhand 5.22288 22.5337
lfingers 7.12502
lthumb 30.5825 50.0139
rfemur -29.4786 -9.87934 26.1113
rtibia 48.9936
rfoot -16.7675 3.38123
rtoes -6.68537
lfemur -28.2528 14.9222 -10.3608
ltibia 51.2844
lfoot -20.9473 -7.17245
ltoes -20.9818
491
root -0.499266 16.8975 0.0206693 4.11904 -1.63004 -3.70598
lowerback 7.25455 -1.23065 2.17864
upperback -0.920725 -1.5299 -1.67568
thorax -5.13532 -0.844386 -2.79175
lowerneck -8.11701 -0.348624 1.17219
upperneck 0.721947 -0.446795 -4.23821
head 1.60645 -0.321013 -1.56113
rclavicle 1.38155e-014 4.77083e-015
rhumerus 12.5573 -23.902 -8.91406
rradius 92.5241
rwrist -10.0102
rhand 14.8736 1.22676
rfingers 7.12502
rthumb 39.7327 -24.0794
lclavicle 1.38155e-014 4.77083e-015
lhumerus -20.7226 15.8474 77.0179
lradius 86.1206
lwrist -19.6085
lhand 5.12241 22.4044
lfingers 7.12502
lthumb 30.4867 49.9025
rfemur -29.4984 -9.86931 26.1777
rtibia 48.9575
rfoot -16.7709 3.30658
rtoes -7.03684
lfemur -28.2768 14.8987 -10.3116
ltibia 51.2227
lfoot -20.906 -7.25989
ltoes -20.484
492
root -0.502372 16.8995 0.0228932 4.18479 -1.61176 -3.7929
lowerback 7.24198 -1.21165 2.35541
upperback -0.930526 -1.48388 -1.57643
thorax -5.13743 -0.825322 -2.79342
lowerneck -8.26354 -0.38891 1.06998
upperneck 0.879703 -0.485116 -4.23754
head 1.68256 -0.343804 -1.54757
rclavicle 2.22639e-014 -1.27222e-014
rhumerus 13.3177 -23.8601 -9.16446
rradius 92.1546
rwrist -9.64892
rhand 14.3456 1.28374
rfingers 7.12502
rthumb 39.2353 -24.1685
lclavicle 2.22639e-014 -1.27222e-014
lhumerus -21 15.6583 77.0649
lradius 86.2276
lwrist -19.515
lhand 5.20954 22.499
lfingers 7.12502
lthumb 30.5698 49.9816
rfemur -29.5274 -9.83533 26.2957
rtibia 48.9114
rfoot -16.758 3.33346
rtoes -6.76155
lfemur -28.3026 14.8847 -10.2078
ltibia 51.1519
lfoot -20.8786 -7.27254
ltoes -20.4408
